<svg xmlns="http://www.w3.org/2000/svg" xmlns:xlink="http://www.w3.org/1999/xlink" id="Icon-customerservice02_id" viewBox="0 0 16 16" width="200" height="200"><g fill="none"><path fill-opacity=".01" fill="#333333" d="M0 0h16v16H0z"></path><path d="M8 4.517c2.707 0 4.9 2.09 4.9 4.667 0 2.578-2.193 4.668-4.9 4.668-.28 0-.556-.023-.823-.066l-.015.001-.028.006-.039.011-.08.026-.15.052-.375.14-.885.342-.75.297a.167.167 0 0 1-.228-.168l.005-.03.053-.206.047-.194.021-.092.038-.175c.011-.056.022-.11.03-.163l.026-.15.01-.07.015-.13c.03-.31 0-.503-.088-.576C3.752 11.85 3.1 10.59 3.1 9.184c0-2.577 2.193-4.667 4.9-4.667zm0 1c-2.165 0-3.9 1.653-3.9 3.667 0 1.065.484 2.058 1.322 2.753.366.303.503.664.48 1.197l-.002.037.4-.154.203-.076.167-.06.136-.044.075-.022.066-.017.082-.016.048-.006.042-.002h.04l.057.006.12.019c.217.035.44.053.664.053 2.165 0 3.9-1.653 3.9-3.668 0-2.014-1.735-3.667-3.9-3.667zm0-3.469a6.682 6.682 0 0 1 6.124 4.008c.83.253 1.436 1.055 1.436 2.005 0 1.154-.894 2.09-1.997 2.09V7.578a5.682 5.682 0 0 0-11.126 0v2.573C1.334 10.15.44 9.215.44 8.06c0-.95.606-1.751 1.435-2.005A6.683 6.683 0 0 1 8 2.048zM6.027 8.471a.631.631 0 1 1 0 1.263.631.631 0 0 1 0-1.263zm3.946 0a.631.631 0 1 1 0 1.263.631.631 0 0 1 0-1.263zM8 8.47a.631.631 0 1 1 0 1.263.631.631 0 0 1 0-1.263z" fill="#333333"></path></g></svg>